<svg width="52" height="52" viewBox="0 0 52 52" fill="none" xmlns="http://www.w3.org/2000/svg">
<rect y="4" width="48" height="48" rx="16" fill="#EDEEF2"/>
<path d="M19 19.667L16.5 23.0003V34.667C16.5 35.109 16.6756 35.5329 16.9882 35.8455C17.3007 36.1581 17.7246 36.3337 18.1667 36.3337H29.8333C30.2754 36.3337 30.6993 36.1581 31.0118 35.8455C31.3244 35.5329 31.5 35.109 31.5 34.667V23.0003L29 19.667H19Z" stroke="#054A86" stroke-width="1.5" stroke-linecap="round" stroke-linejoin="round"/>
<path d="M16.5 23H31.5" stroke="#054A86" stroke-width="1.5" stroke-linecap="round" stroke-linejoin="round"/>
<path d="M27.3327 26.333C27.3327 27.2171 26.9815 28.0649 26.3564 28.69C25.7313 29.3152 24.8834 29.6663 23.9993 29.6663C23.1153 29.6663 22.2674 29.3152 21.6423 28.69C21.0172 28.0649 20.666 27.2171 20.666 26.333" stroke="#054A86" stroke-width="1.5" stroke-linecap="round" stroke-linejoin="round"/>
<rect x="32" width="20" height="20" rx="8" fill="#EE3123"/>
<path d="M43.132 14.08C42.932 14.08 42.7753 14.0267 42.662 13.92C42.5486 13.8067 42.492 13.6467 42.492 13.44V12.66H40.022C39.8153 12.66 39.6486 12.6167 39.522 12.53C39.402 12.4433 39.342 12.3067 39.342 12.12C39.342 12.0133 39.3686 11.8967 39.422 11.77C39.482 11.6433 39.5853 11.4767 39.732 11.27L42.472 7.3C42.5653 7.16 42.6686 7.05333 42.782 6.98C42.8953 6.90667 43.0253 6.87 43.172 6.87C43.3453 6.87 43.4886 6.92333 43.602 7.03C43.7153 7.13 43.772 7.29 43.772 7.51V11.6H44.262C44.4553 11.6 44.5986 11.6467 44.692 11.74C44.792 11.8267 44.842 11.9567 44.842 12.13C44.842 12.3033 44.792 12.4367 44.692 12.53C44.5986 12.6167 44.4553 12.66 44.262 12.66H43.772V13.44C43.772 13.6467 43.7153 13.8067 43.602 13.92C43.4886 14.0267 43.332 14.08 43.132 14.08ZM42.492 11.6V8.48H42.782L40.422 11.94V11.6H42.492Z" fill="white"/>
</svg>
