<svg width="234" height="24" viewBox="0 0 234 24" fill="none" xmlns="http://www.w3.org/2000/svg">
<path d="M158.612 20.126C158.384 20.126 158.198 20.072 158.054 19.964C157.91 19.856 157.796 19.694 157.712 19.478L152.762 8.156C152.678 7.952 152.654 7.784 152.69 7.652C152.726 7.508 152.804 7.394 152.924 7.31C153.056 7.226 153.206 7.184 153.374 7.184C153.602 7.184 153.77 7.238 153.878 7.346C153.998 7.442 154.094 7.586 154.166 7.778L158.918 18.812H158.342L163.076 7.76C163.16 7.58 163.262 7.442 163.382 7.346C163.502 7.238 163.67 7.184 163.886 7.184C164.054 7.184 164.192 7.226 164.3 7.31C164.42 7.394 164.492 7.508 164.516 7.652C164.552 7.796 164.528 7.964 164.444 8.156L159.494 19.478C159.41 19.694 159.296 19.856 159.152 19.964C159.02 20.072 158.84 20.126 158.612 20.126ZM167.288 20C167.024 20 166.82 19.934 166.676 19.802C166.544 19.658 166.478 19.454 166.478 19.19V8.12C166.478 7.856 166.544 7.658 166.676 7.526C166.82 7.382 167.024 7.31 167.288 7.31H173.984C174.188 7.31 174.344 7.364 174.452 7.472C174.56 7.58 174.614 7.73 174.614 7.922C174.614 8.126 174.56 8.282 174.452 8.39C174.344 8.498 174.188 8.552 173.984 8.552H167.918V12.944H173.606C173.81 12.944 173.966 12.998 174.074 13.106C174.182 13.202 174.236 13.352 174.236 13.556C174.236 13.76 174.182 13.916 174.074 14.024C173.966 14.132 173.81 14.186 173.606 14.186H167.918V18.758H173.984C174.188 18.758 174.344 18.812 174.452 18.92C174.56 19.028 174.614 19.178 174.614 19.37C174.614 19.574 174.56 19.73 174.452 19.838C174.344 19.946 174.188 20 173.984 20H167.288ZM177.774 20.126C177.546 20.126 177.372 20.066 177.252 19.946C177.132 19.814 177.072 19.628 177.072 19.388V7.94C177.072 7.7 177.132 7.514 177.252 7.382C177.372 7.25 177.528 7.184 177.72 7.184C177.912 7.184 178.05 7.22 178.134 7.292C178.23 7.352 178.338 7.466 178.458 7.634L186.306 18.092H185.874V7.904C185.874 7.676 185.934 7.502 186.054 7.382C186.174 7.25 186.348 7.184 186.576 7.184C186.792 7.184 186.954 7.25 187.062 7.382C187.182 7.502 187.242 7.676 187.242 7.904V19.406C187.242 19.634 187.188 19.814 187.08 19.946C186.984 20.066 186.84 20.126 186.648 20.126C186.468 20.126 186.324 20.09 186.216 20.018C186.108 19.946 185.994 19.832 185.874 19.676L178.044 9.218H178.458V19.388C178.458 19.628 178.398 19.814 178.278 19.946C178.158 20.066 177.99 20.126 177.774 20.126ZM191.307 20C191.043 20 190.839 19.934 190.695 19.802C190.563 19.658 190.497 19.454 190.497 19.19V8.12C190.497 7.856 190.563 7.658 190.695 7.526C190.839 7.382 191.043 7.31 191.307 7.31H194.781C196.833 7.31 198.417 7.85 199.533 8.93C200.649 10.01 201.207 11.582 201.207 13.646C201.207 14.678 201.063 15.59 200.775 16.382C200.499 17.162 200.085 17.822 199.533 18.362C198.981 18.902 198.309 19.31 197.517 19.586C196.725 19.862 195.813 20 194.781 20H191.307ZM191.973 18.74H194.673C195.513 18.74 196.239 18.632 196.851 18.416C197.475 18.2 197.991 17.882 198.399 17.462C198.819 17.042 199.131 16.514 199.335 15.878C199.539 15.23 199.641 14.486 199.641 13.646C199.641 11.954 199.227 10.688 198.399 9.848C197.571 8.996 196.329 8.57 194.673 8.57H191.973V18.74ZM204.694 20.126C204.454 20.126 204.268 20.06 204.136 19.928C204.016 19.784 203.956 19.592 203.956 19.352V7.958C203.956 7.706 204.016 7.514 204.136 7.382C204.268 7.25 204.454 7.184 204.694 7.184C204.934 7.184 205.114 7.25 205.234 7.382C205.366 7.514 205.432 7.706 205.432 7.958V19.352C205.432 19.592 205.372 19.784 205.252 19.928C205.132 20.06 204.946 20.126 204.694 20.126ZM209.381 20.126C209.153 20.126 208.979 20.066 208.859 19.946C208.739 19.814 208.679 19.628 208.679 19.388V7.94C208.679 7.7 208.739 7.514 208.859 7.382C208.979 7.25 209.135 7.184 209.327 7.184C209.519 7.184 209.657 7.22 209.741 7.292C209.837 7.352 209.945 7.466 210.065 7.634L217.913 18.092H217.481V7.904C217.481 7.676 217.541 7.502 217.661 7.382C217.781 7.25 217.955 7.184 218.183 7.184C218.399 7.184 218.561 7.25 218.669 7.382C218.789 7.502 218.849 7.676 218.849 7.904V19.406C218.849 19.634 218.795 19.814 218.687 19.946C218.591 20.066 218.447 20.126 218.255 20.126C218.075 20.126 217.931 20.09 217.823 20.018C217.715 19.946 217.601 19.832 217.481 19.676L209.651 9.218H210.065V19.388C210.065 19.628 210.005 19.814 209.885 19.946C209.765 20.066 209.597 20.126 209.381 20.126ZM227.899 20.162C226.543 20.162 225.397 19.904 224.461 19.388C223.537 18.872 222.835 18.128 222.355 17.156C221.875 16.184 221.635 15.02 221.635 13.664C221.635 12.656 221.767 11.75 222.031 10.946C222.307 10.142 222.703 9.464 223.219 8.912C223.747 8.348 224.383 7.916 225.127 7.616C225.883 7.304 226.735 7.148 227.683 7.148C228.439 7.148 229.171 7.256 229.879 7.472C230.587 7.676 231.217 8.006 231.769 8.462C231.913 8.57 232.003 8.69 232.039 8.822C232.075 8.954 232.069 9.086 232.021 9.218C231.985 9.35 231.919 9.464 231.823 9.56C231.739 9.644 231.625 9.692 231.481 9.704C231.349 9.716 231.211 9.674 231.067 9.578C230.575 9.194 230.053 8.918 229.501 8.75C228.949 8.57 228.337 8.48 227.665 8.48C226.705 8.48 225.889 8.684 225.217 9.092C224.557 9.5 224.053 10.088 223.705 10.856C223.369 11.624 223.201 12.56 223.201 13.664C223.201 15.344 223.591 16.628 224.371 17.516C225.163 18.404 226.351 18.848 227.935 18.848C228.511 18.848 229.075 18.794 229.627 18.686C230.179 18.566 230.701 18.404 231.193 18.2L230.869 19.046V14.564H228.295C228.079 14.564 227.917 14.51 227.809 14.402C227.701 14.294 227.647 14.15 227.647 13.97C227.647 13.778 227.701 13.634 227.809 13.538C227.917 13.442 228.079 13.394 228.295 13.394H231.517C231.721 13.394 231.877 13.448 231.985 13.556C232.093 13.664 232.147 13.82 232.147 14.024V18.722C232.147 18.902 232.117 19.052 232.057 19.172C231.997 19.292 231.895 19.382 231.751 19.442C231.247 19.646 230.641 19.82 229.933 19.964C229.237 20.096 228.559 20.162 227.899 20.162Z" fill="#054A86"/>
<path d="M114.561 4.81772V0.858627C114.561 0.420675 114.208 0.0703125 113.766 0.0703125H96.7595C96.318 0.0703125 95.9648 0.420675 95.9648 0.858627V4.01189C95.9648 4.44984 96.318 4.8002 96.7595 4.8002H101.863C102.305 4.8002 102.658 5.15056 102.658 5.58852V22.6687C102.658 23.4044 103.258 24 104 24H106.543C107.285 24 107.885 23.4044 107.885 22.6687V5.58852C107.885 5.15056 108.239 4.8002 108.68 4.8002L114.561 4.81772Z" fill="#054A86"/>
<path d="M64.1591 0.0878906C57.8898 0.157963 54.8876 3.94187 54.8522 9.82796C54.7993 10.9842 54.7993 13.0863 54.8522 14.26C54.9229 15.7666 55.0112 16.9929 55.488 18.3768C56.6889 22.2308 60.1679 23.9826 64.1591 24.0001C68.1503 24.0001 71.6293 22.2483 72.8302 18.3768C73.3071 16.9929 73.3954 15.7666 73.466 14.26C73.519 13.1038 73.519 11.0017 73.466 9.82796C73.4307 3.94187 70.4285 0.157963 64.1591 0.0878906ZM68.2033 15.0308C68.0797 17.4308 66.8435 19.2702 64.1591 19.2352C61.4924 19.2702 60.2386 17.4308 60.115 15.0308C59.9913 13.5243 60.0267 11.9652 60.0443 10.4061C60.0796 9.26738 60.1149 8.35644 60.4152 7.37542C60.9626 5.7112 62.3048 4.80026 64.1591 4.81778C66.0134 4.80026 67.3556 5.7112 67.9031 7.37542C68.2033 8.35644 68.2386 9.26738 68.2739 10.4061C68.2916 11.9476 68.3269 13.5243 68.2033 15.0308Z" fill="#054A86"/>
<path d="M92.8742 11.8598C91.6203 10.7387 89.7483 10.0204 87.2759 9.70508L86.022 9.5299C84.6445 9.35472 83.6909 9.0394 83.1434 8.61896C81.9955 7.77809 82.1015 6.0438 83.1258 5.18541C83.6556 4.71243 84.4503 4.46717 85.5099 4.46717C87.5761 4.46717 89.2892 5.11534 91.0375 6.2365C91.2318 6.34161 91.3907 6.32409 91.532 6.13139L93.6512 3.01317C93.8101 2.80295 93.7925 2.64529 93.5806 2.50514C90.5254 0.262827 85.7042 -0.543006 82.0132 0.595671C80.0353 1.24384 78.4812 2.41755 77.6511 4.25695C76.5386 6.65693 76.9801 10.3708 78.9933 11.9474C80.2825 13.0686 82.1545 13.7868 84.5739 14.1021L85.8278 14.2773C87.2582 14.4525 88.2119 14.7678 88.724 15.1883C89.8719 16.1167 89.6953 17.6057 88.5121 18.4466C87.011 19.6028 83.8852 19.3225 82.1721 18.4817C81.1302 17.9911 80.1942 17.4481 79.4172 16.835C79.2052 16.6773 79.0286 16.6948 78.8873 16.87L76.203 20.2335C76.0441 20.4437 76.0441 20.6364 76.2383 20.8116C78.6401 22.9313 82.1368 23.9473 85.4039 23.9823C89.0243 23.9999 92.6622 22.8787 94.1457 19.6028C95.2936 17.1853 94.8168 13.4364 92.8742 11.8598Z" fill="#054A86"/>
<path d="M126.8 0.403096C126.73 0.175361 126.571 0.0527344 126.341 0.0527344H121.856C121.626 0.0527344 121.467 0.175361 121.396 0.403096L113.078 23.6321C113.008 23.8598 113.096 23.9825 113.326 23.9825H117.988C118.218 23.9825 118.376 23.8598 118.447 23.6321L119.683 19.8482C119.807 19.4803 120.142 19.2175 120.549 19.2175H127.542C127.931 19.2175 128.284 19.4628 128.407 19.8307L129.644 23.6146C129.714 23.8423 129.873 23.9649 130.103 23.9649H134.73C134.959 23.9649 135.048 23.8423 134.977 23.6146L126.8 0.403096ZM125.599 15.0482H122.509C121.891 15.0482 121.467 14.4526 121.644 13.8745L123.992 6.67458H124.098L126.447 13.8745C126.659 14.4526 126.218 15.0482 125.599 15.0482Z" fill="#054A86"/>
<path d="M42.4011 0.0878906H36.9441C35.0015 0.0878906 33.4121 1.71707 33.4121 3.73166V24.0001H42.4011C44.4497 24.0001 46.1627 23.5622 47.5225 22.6687C48.8824 21.7753 49.8537 20.4264 50.4188 18.622C51.0546 16.4498 51.0192 14.4878 51.0369 12.0528C51.0192 9.61774 51.0546 7.65571 50.4188 5.48347C49.2356 1.647 46.2687 0.0878906 42.4011 0.0878906ZM46.2334 15.1359C46.1627 15.714 46.1274 16.117 45.9508 16.5899C45.2974 18.7622 43.7963 19.2001 41.6417 19.2352H38.2157V5.7112C38.2157 5.20318 38.8338 4.80026 39.3282 4.80026H41.2885C42.4541 4.80026 43.7433 4.99296 44.4497 5.37836C45.1561 5.76376 45.6506 6.44696 45.9508 7.4455C46.1274 7.936 46.1804 8.3214 46.2334 8.93453C46.3217 9.9681 46.304 10.7915 46.3217 12.0352C46.304 13.279 46.3217 14.1024 46.2334 15.1359Z" fill="#054A86"/>
<path d="M23.8235 11.8072C23.8235 5.29047 18.4901 0 11.9206 0H3.72628C1.67771 0 0 1.6467 0 3.69632V8.30358C0 10.3357 1.66005 11.9999 3.72628 11.9999H16.212C9.46582 11.9999 4.00885 17.3079 4.09715 23.9998H11.7087C18.4548 23.9998 23.9118 18.4991 23.8235 11.8072Z" fill="#054A86"/>
<rect x="143" width="1" height="24" fill="#054A86"/>
</svg>
