<svg width="135" height="24" viewBox="0 0 135 24" fill="none" xmlns="http://www.w3.org/2000/svg">
<path d="M114.561 4.81772V0.858627C114.561 0.420675 114.208 0.0703125 113.766 0.0703125H96.7595C96.318 0.0703125 95.9648 0.420675 95.9648 0.858627V4.01189C95.9648 4.44984 96.318 4.8002 96.7595 4.8002H101.863C102.305 4.8002 102.658 5.15056 102.658 5.58852V22.6687C102.658 23.4044 103.258 24 104 24H106.543C107.285 24 107.885 23.4044 107.885 22.6687V5.58852C107.885 5.15056 108.239 4.8002 108.68 4.8002L114.561 4.81772Z" fill="#054A86"/>
<path d="M64.1591 0.0878906C57.8898 0.157963 54.8876 3.94187 54.8522 9.82796C54.7993 10.9842 54.7993 13.0863 54.8522 14.26C54.9229 15.7666 55.0112 16.9929 55.488 18.3768C56.6889 22.2308 60.1679 23.9826 64.1591 24.0001C68.1503 24.0001 71.6293 22.2483 72.8302 18.3768C73.3071 16.9929 73.3954 15.7666 73.466 14.26C73.519 13.1038 73.519 11.0017 73.466 9.82796C73.4307 3.94187 70.4285 0.157963 64.1591 0.0878906ZM68.2033 15.0308C68.0797 17.4308 66.8435 19.2702 64.1591 19.2352C61.4924 19.2702 60.2386 17.4308 60.115 15.0308C59.9913 13.5243 60.0267 11.9652 60.0443 10.4061C60.0796 9.26738 60.1149 8.35644 60.4152 7.37542C60.9626 5.7112 62.3048 4.80026 64.1591 4.81778C66.0134 4.80026 67.3556 5.7112 67.9031 7.37542C68.2033 8.35644 68.2386 9.26738 68.2739 10.4061C68.2916 11.9476 68.3269 13.5243 68.2033 15.0308Z" fill="#054A86"/>
<path d="M92.8742 11.8598C91.6203 10.7387 89.7483 10.0204 87.2759 9.70508L86.022 9.5299C84.6445 9.35472 83.6909 9.0394 83.1434 8.61896C81.9955 7.77809 82.1015 6.0438 83.1258 5.18541C83.6556 4.71243 84.4503 4.46717 85.5099 4.46717C87.5761 4.46717 89.2892 5.11534 91.0375 6.2365C91.2318 6.34161 91.3907 6.32409 91.532 6.13139L93.6512 3.01317C93.8101 2.80295 93.7925 2.64529 93.5806 2.50514C90.5254 0.262827 85.7042 -0.543006 82.0132 0.595671C80.0353 1.24384 78.4812 2.41755 77.6511 4.25695C76.5386 6.65693 76.9801 10.3708 78.9933 11.9474C80.2825 13.0686 82.1545 13.7868 84.5739 14.1021L85.8278 14.2773C87.2582 14.4525 88.2119 14.7678 88.724 15.1883C89.8719 16.1167 89.6953 17.6057 88.5121 18.4466C87.011 19.6028 83.8852 19.3225 82.1721 18.4817C81.1302 17.9911 80.1942 17.4481 79.4172 16.835C79.2052 16.6773 79.0286 16.6948 78.8873 16.87L76.203 20.2335C76.0441 20.4437 76.0441 20.6364 76.2383 20.8116C78.6401 22.9313 82.1368 23.9473 85.4039 23.9823C89.0243 23.9999 92.6622 22.8787 94.1457 19.6028C95.2936 17.1853 94.8168 13.4364 92.8742 11.8598Z" fill="#054A86"/>
<path d="M126.8 0.403096C126.73 0.175361 126.571 0.0527344 126.341 0.0527344H121.856C121.626 0.0527344 121.467 0.175361 121.396 0.403096L113.078 23.6321C113.008 23.8598 113.096 23.9825 113.326 23.9825H117.988C118.218 23.9825 118.376 23.8598 118.447 23.6321L119.683 19.8482C119.807 19.4803 120.142 19.2175 120.549 19.2175H127.542C127.931 19.2175 128.284 19.4628 128.407 19.8307L129.644 23.6146C129.714 23.8423 129.873 23.9649 130.103 23.9649H134.73C134.959 23.9649 135.048 23.8423 134.977 23.6146L126.8 0.403096ZM125.599 15.0482H122.509C121.891 15.0482 121.467 14.4526 121.644 13.8745L123.992 6.67458H124.098L126.447 13.8745C126.659 14.4526 126.218 15.0482 125.599 15.0482Z" fill="#054A86"/>
<path d="M42.4011 0.0878906H36.9441C35.0015 0.0878906 33.4121 1.71707 33.4121 3.73166V24.0001H42.4011C44.4497 24.0001 46.1627 23.5622 47.5225 22.6687C48.8824 21.7753 49.8537 20.4264 50.4188 18.622C51.0546 16.4498 51.0192 14.4878 51.0369 12.0528C51.0192 9.61774 51.0546 7.65571 50.4188 5.48347C49.2356 1.647 46.2687 0.0878906 42.4011 0.0878906ZM46.2334 15.1359C46.1627 15.714 46.1274 16.117 45.9508 16.5899C45.2974 18.7622 43.7963 19.2001 41.6417 19.2352H38.2157V5.7112C38.2157 5.20318 38.8338 4.80026 39.3282 4.80026H41.2885C42.4541 4.80026 43.7433 4.99296 44.4497 5.37836C45.1561 5.76376 45.6506 6.44696 45.9508 7.4455C46.1274 7.936 46.1804 8.3214 46.2334 8.93453C46.3217 9.9681 46.304 10.7915 46.3217 12.0352C46.304 13.279 46.3217 14.1024 46.2334 15.1359Z" fill="#054A86"/>
<path d="M23.8235 11.8072C23.8235 5.29047 18.4901 0 11.9206 0H3.72628C1.67771 0 0 1.6467 0 3.69632V8.30358C0 10.3357 1.66005 11.9999 3.72628 11.9999H16.212C9.46582 11.9999 4.00885 17.3079 4.09715 23.9998H11.7087C18.4548 23.9998 23.9118 18.4991 23.8235 11.8072Z" fill="#054A86"/>
</svg>
