<svg width="120" height="120" viewBox="0 0 120 120" fill="none" xmlns="http://www.w3.org/2000/svg">
<path d="M0.75 40.25H40.25V0.75H0.75V40.25ZM7.33333 7.33333H33.6667V33.6667H7.33333V7.33333ZM13.9167 13.9167H27.0833V27.0833H13.9167V13.9167ZM79.75 40.25H119.25V0.75H79.75V40.25ZM86.3333 7.33333H112.667V33.6667H86.3333V7.33333ZM92.9167 13.9167H106.083V27.0833H92.9167V13.9167ZM0.75 119.25H40.25V79.75H0.75V119.25ZM7.33333 86.3333H33.6667V112.667H7.33333V86.3333ZM13.9167 92.9167H27.0833V106.083H13.9167V92.9167ZM112.667 106.083H119.25V119.25H106.083V99.5H112.667V106.083ZM112.667 86.3333H119.25V92.9167H112.667V86.3333ZM112.667 79.75V86.3333H106.083V79.75H112.667ZM46.8333 92.9167H53.4167V119.25H46.8333V92.9167ZM20.5 46.8333V60H7.33333V53.4167H0.75V46.8333H20.5ZM46.8333 27.0833H53.4167V33.6667H46.8333V27.0833ZM66.5833 7.33333V20.5H60V0.75H73.1667V7.33333H66.5833ZM46.8333 7.33333H53.4167V13.9167H46.8333V7.33333ZM112.667 60H119.25V73.1667H106.083V66.5833H112.667V60ZM106.083 46.8333V53.4167H92.9167V66.5833H79.75V60H86.3333V46.8333H106.083ZM60 73.1667H53.4167V66.5833H46.8333V60H60V73.1667ZM99.5 86.3333H106.083V92.9167H99.5V86.3333ZM112.667 53.4167V60H106.083V53.4167H112.667ZM53.4167 73.1667V79.75H46.8333V73.1667H53.4167ZM92.9167 106.083H99.5V119.25H86.3333V106.083H92.9167ZM73.1667 106.083H79.75V112.667H73.1667V119.25H60V112.667H66.5833V106.083H73.1667ZM73.1667 99.5V92.9167H86.3333V99.5H73.1667ZM73.1667 66.5833H79.75V86.3333H73.1667V92.9167H66.5833V99.5H60V86.3333H53.4167V79.75H73.1667V73.1667H66.5833V66.5833H73.1667ZM13.9167 66.5833V73.1667H7.33333V66.5833H13.9167ZM92.9167 92.9167H86.3333V86.3333H92.9167V92.9167ZM99.5 79.75H86.3333V73.1667H99.5V79.75ZM33.6667 46.8333H40.25V53.4167H33.6667V60H40.25V73.1667H33.6667V66.5833H27.0833V73.1667H20.5V60H27.0833V46.8333H33.6667ZM53.4167 46.8333V33.6667H73.1667V53.4167H60V46.8333H66.5833V40.25H60V46.8333H53.4167ZM53.4167 20.5H60V27.0833H53.4167V20.5ZM46.8333 46.8333H53.4167V53.4167H46.8333V46.8333ZM66.5833 27.0833V20.5H73.1667V27.0833H66.5833Z" fill="black"/>
</svg>
