<svg width="40" height="40" viewBox="0 0 40 40" fill="none" xmlns="http://www.w3.org/2000/svg">
<path d="M35 16.667C35 28.3337 20 38.3337 20 38.3337C20 38.3337 5 28.3337 5 16.667C5 12.6887 6.58035 8.87344 9.3934 6.06039C12.2064 3.24734 16.0218 1.66699 20 1.66699C23.9782 1.66699 27.7936 3.24734 30.6066 6.06039C33.4196 8.87344 35 12.6887 35 16.667Z" fill="#054A86"/>
<path d="M20 21.667C22.7614 21.667 25 19.4284 25 16.667C25 13.9056 22.7614 11.667 20 11.667C17.2386 11.667 15 13.9056 15 16.667C15 19.4284 17.2386 21.667 20 21.667Z" fill="white"/>
</svg>
