<svg width="16" height="16" viewBox="0 0 16 16" fill="none" xmlns="http://www.w3.org/2000/svg">
<path d="M2 4H3.33333H14" stroke="#C7C8D2" stroke-width="1.3" stroke-linecap="round" stroke-linejoin="round"/>
<path d="M5.33203 4.00001V2.66668C5.33203 2.31305 5.47251 1.97392 5.72256 1.72387C5.9726 1.47382 6.31174 1.33334 6.66536 1.33334H9.33203C9.68565 1.33334 10.0248 1.47382 10.2748 1.72387C10.5249 1.97392 10.6654 2.31305 10.6654 2.66668V4.00001M12.6654 4.00001V13.3333C12.6654 13.687 12.5249 14.0261 12.2748 14.2762C12.0248 14.5262 11.6857 14.6667 11.332 14.6667H4.66536C4.31174 14.6667 3.9726 14.5262 3.72256 14.2762C3.47251 14.0261 3.33203 13.687 3.33203 13.3333V4.00001H12.6654Z" stroke="#C7C8D2" stroke-width="1.3" stroke-linecap="round" stroke-linejoin="round"/>
</svg>
