<svg width="26" height="16" viewBox="0 0 26 16" fill="none" xmlns="http://www.w3.org/2000/svg">
<g clip-path="url(#clip0_1_13733)">
<path d="M16.3539 1.68359H9.63672V14.0641H16.3539V1.68359Z" fill="#FF5F00"/>
<path d="M10.061 7.87366C10.06 6.68132 10.3234 5.50436 10.8314 4.43189C11.3394 3.35941 12.0786 2.41953 12.9931 1.68339C11.8606 0.770405 10.5006 0.202633 9.06833 0.0449686C7.6361 -0.112695 6.18951 0.146105 4.89392 0.791801C3.59832 1.4375 2.50598 2.44403 1.74175 3.69636C0.977532 4.94868 0.572266 6.39627 0.572266 7.87366C0.572266 9.35105 0.977532 10.7986 1.74175 12.051C2.50598 13.3033 3.59832 14.3098 4.89392 14.9555C6.18951 15.6012 7.6361 15.86 9.06833 15.7023C10.5006 15.5447 11.8606 14.9769 12.9931 14.0639C12.0786 13.3278 11.3394 12.3879 10.8314 11.3154C10.3234 10.2429 10.06 9.06599 10.061 7.87366Z" fill="#EB001B"/>
<path d="M25.4146 7.87365C25.4147 9.35102 25.0095 10.7986 24.2453 12.0509C23.4811 13.3033 22.3888 14.3098 21.0932 14.9555C19.7976 15.6012 18.3511 15.86 16.9189 15.7023C15.4867 15.5447 14.1266 14.9769 12.9941 14.0639C13.9078 13.327 14.6465 12.387 15.1544 11.3147C15.6623 10.2424 15.9262 9.0658 15.9262 7.87365C15.9262 6.68151 15.6623 5.50492 15.1544 4.43262C14.6465 3.36031 13.9078 2.42027 12.9941 1.68339C14.1266 0.770401 15.4867 0.202629 16.9189 0.0449666C18.3511 -0.112695 19.7976 0.146116 21.0932 0.791819C22.3888 1.43752 23.4811 2.44406 24.2453 3.69638C25.0095 4.94871 25.4147 6.39629 25.4146 7.87365Z" fill="#F79E1B"/>
<path d="M24.6795 12.7529V12.4994H24.7792V12.4478H24.5254V12.4994H24.6251V12.7529H24.6795ZM25.1722 12.7529V12.4473H25.0944L25.005 12.6575L24.9155 12.4473H24.8376V12.7529H24.8926V12.5223L24.9765 12.7211H25.0334L25.1173 12.5218V12.7529H25.1722Z" fill="#F79E1B"/>
</g>
<defs>
<clipPath id="clip0_1_13733">
<rect width="26" height="16" fill="white"/>
</clipPath>
</defs>
</svg>
