<svg width="47" height="16" viewBox="0 0 47 16" fill="none" xmlns="http://www.w3.org/2000/svg">
<g clip-path="url(#clip0_1_9611)">
<path d="M10.295 8.705L6.71 12.29C6.61713 12.383 6.50684 12.4567 6.38544 12.5071C6.26404 12.5574 6.13392 12.5833 6.0025 12.5833C5.87108 12.5833 5.74096 12.5574 5.61956 12.5071C5.49816 12.4567 5.38787 12.383 5.295 12.29L1 8V3H6L10.295 7.295C10.4813 7.48236 10.5858 7.73581 10.5858 8C10.5858 8.26419 10.4813 8.51764 10.295 8.705V8.705Z" stroke="#83859C" stroke-linecap="round" stroke-linejoin="round"/>
<path d="M3.5 5.5H3.505" stroke="#83859C" stroke-linecap="round" stroke-linejoin="round"/>
</g>
<path d="M22.656 12.108C21.856 12.108 21.156 11.932 20.556 11.58C19.964 11.22 19.504 10.716 19.176 10.068C18.856 9.412 18.696 8.644 18.696 7.764C18.696 7.1 18.788 6.504 18.972 5.976C19.156 5.44 19.42 4.984 19.764 4.608C20.108 4.224 20.524 3.932 21.012 3.732C21.5 3.532 22.048 3.432 22.656 3.432C23.464 3.432 24.164 3.608 24.756 3.96C25.348 4.312 25.804 4.812 26.124 5.46C26.452 6.108 26.616 6.872 26.616 7.752C26.616 8.416 26.524 9.016 26.34 9.552C26.156 10.088 25.888 10.548 25.536 10.932C25.192 11.316 24.776 11.608 24.288 11.808C23.8 12.008 23.256 12.108 22.656 12.108ZM22.656 11.028C23.216 11.028 23.692 10.9 24.084 10.644C24.484 10.388 24.788 10.016 24.996 9.528C25.212 9.04 25.32 8.452 25.32 7.764C25.32 6.732 25.088 5.932 24.624 5.364C24.16 4.796 23.504 4.512 22.656 4.512C22.096 4.512 21.616 4.64 21.216 4.896C20.824 5.144 20.52 5.512 20.304 6C20.096 6.488 19.992 7.076 19.992 7.764C19.992 8.788 20.224 9.588 20.688 10.164C21.16 10.74 21.816 11.028 22.656 11.028ZM29.1167 12.084C28.9247 12.084 28.7727 12.032 28.6607 11.928C28.5567 11.816 28.5047 11.664 28.5047 11.472V7.08H27.8327C27.6807 7.08 27.5607 7.04 27.4727 6.96C27.3847 6.872 27.3407 6.756 27.3407 6.612C27.3407 6.46 27.3847 6.344 27.4727 6.264C27.5607 6.184 27.6807 6.144 27.8327 6.144H28.8527L28.5047 6.468V6.036C28.5047 5.244 28.7007 4.648 29.0927 4.248C29.4847 3.84 30.0567 3.6 30.8087 3.528L31.1807 3.504C31.3167 3.488 31.4247 3.508 31.5047 3.564C31.5847 3.62 31.6367 3.692 31.6607 3.78C31.6847 3.868 31.6847 3.96 31.6607 4.056C31.6447 4.144 31.6047 4.224 31.5407 4.296C31.4767 4.368 31.3967 4.408 31.3007 4.416L31.0727 4.428C30.6007 4.468 30.2567 4.604 30.0407 4.836C29.8247 5.06 29.7167 5.404 29.7167 5.868V6.336L29.5487 6.144H30.8807C31.0487 6.144 31.1727 6.184 31.2527 6.264C31.3407 6.344 31.3847 6.46 31.3847 6.612C31.3847 6.756 31.3407 6.872 31.2527 6.96C31.1727 7.04 31.0487 7.08 30.8807 7.08H29.7167V11.472C29.7167 11.88 29.5167 12.084 29.1167 12.084ZM33.0542 12.084C32.8622 12.084 32.7102 12.032 32.5982 11.928C32.4942 11.816 32.4422 11.664 32.4422 11.472V7.08H31.7702C31.6182 7.08 31.4982 7.04 31.4102 6.96C31.3222 6.872 31.2782 6.756 31.2782 6.612C31.2782 6.46 31.3222 6.344 31.4102 6.264C31.4982 6.184 31.6182 6.144 31.7702 6.144H32.7902L32.4422 6.468V6.036C32.4422 5.244 32.6382 4.648 33.0302 4.248C33.4222 3.84 33.9942 3.6 34.7462 3.528L35.1182 3.504C35.2542 3.488 35.3622 3.508 35.4422 3.564C35.5222 3.62 35.5742 3.692 35.5982 3.78C35.6222 3.868 35.6222 3.96 35.5982 4.056C35.5822 4.144 35.5422 4.224 35.4782 4.296C35.4142 4.368 35.3342 4.408 35.2382 4.416L35.0102 4.428C34.5382 4.468 34.1942 4.604 33.9782 4.836C33.7622 5.06 33.6542 5.404 33.6542 5.868V6.336L33.4862 6.144H34.8182C34.9862 6.144 35.1102 6.184 35.1902 6.264C35.2782 6.344 35.3222 6.46 35.3222 6.612C35.3222 6.756 35.2782 6.872 35.1902 6.96C35.1102 7.04 34.9862 7.08 34.8182 7.08H33.6542V11.472C33.6542 11.88 33.4542 12.084 33.0542 12.084ZM38.8383 12.108C38.1983 12.108 37.6463 11.988 37.1823 11.748C36.7263 11.5 36.3703 11.152 36.1143 10.704C35.8663 10.248 35.7423 9.708 35.7423 9.084C35.7423 8.476 35.8663 7.944 36.1143 7.488C36.3623 7.032 36.7023 6.676 37.1343 6.42C37.5663 6.164 38.0583 6.036 38.6103 6.036C39.0183 6.036 39.3823 6.104 39.7023 6.24C40.0223 6.368 40.2943 6.56 40.5183 6.816C40.7503 7.064 40.9223 7.368 41.0343 7.728C41.1543 8.088 41.2143 8.492 41.2143 8.94C41.2143 9.076 41.1743 9.18 41.0943 9.252C41.0143 9.316 40.8943 9.348 40.7343 9.348H36.7023V8.604H40.3983L40.1943 8.772C40.1943 8.372 40.1343 8.032 40.0143 7.752C39.9023 7.472 39.7303 7.26 39.4983 7.116C39.2743 6.964 38.9943 6.888 38.6583 6.888C38.2823 6.888 37.9623 6.976 37.6983 7.152C37.4423 7.328 37.2463 7.572 37.1103 7.884C36.9743 8.196 36.9063 8.56 36.9063 8.976V9.048C36.9063 9.752 37.0703 10.284 37.3983 10.644C37.7343 10.996 38.2183 11.172 38.8503 11.172C39.0903 11.172 39.3423 11.14 39.6063 11.076C39.8783 11.012 40.1343 10.904 40.3743 10.752C40.5103 10.672 40.6303 10.636 40.7343 10.644C40.8463 10.652 40.9343 10.688 40.9983 10.752C41.0703 10.816 41.1143 10.896 41.1303 10.992C41.1463 11.088 41.1303 11.188 41.0823 11.292C41.0343 11.388 40.9503 11.476 40.8303 11.556C40.5583 11.74 40.2423 11.88 39.8823 11.976C39.5223 12.064 39.1743 12.108 38.8383 12.108ZM43.1476 12.084C42.9476 12.084 42.7956 12.032 42.6916 11.928C42.5876 11.816 42.5356 11.664 42.5356 11.472V6.672C42.5356 6.472 42.5876 6.32 42.6916 6.216C42.7956 6.112 42.9396 6.06 43.1236 6.06C43.3156 6.06 43.4596 6.112 43.5556 6.216C43.6596 6.32 43.7116 6.472 43.7116 6.672V7.548H43.5916C43.7196 7.068 43.9556 6.704 44.2996 6.456C44.6436 6.208 45.0836 6.064 45.6196 6.024C45.7636 6.016 45.8756 6.052 45.9556 6.132C46.0436 6.212 46.0916 6.336 46.0996 6.504C46.1156 6.672 46.0796 6.808 45.9916 6.912C45.9036 7.008 45.7676 7.064 45.5836 7.08L45.3556 7.104C44.8356 7.152 44.4396 7.316 44.1676 7.596C43.8956 7.876 43.7596 8.26 43.7596 8.748V11.472C43.7596 11.664 43.7076 11.816 43.6036 11.928C43.5076 12.032 43.3556 12.084 43.1476 12.084Z" fill="#83859C"/>
<defs>
<clipPath id="clip0_1_9611">
<rect width="12" height="12" fill="white" transform="translate(0 2)"/>
</clipPath>
</defs>
</svg>
