<svg width="20" height="20" viewBox="0 0 20 20" fill="none" xmlns="http://www.w3.org/2000/svg">
<g clip-path="url(#clip0_269_10668)">
<path d="M18.3346 9.23333V10C18.3336 11.797 17.7517 13.5456 16.6757 14.9849C15.5998 16.4241 14.0874 17.4771 12.3641 17.9866C10.6408 18.4961 8.79902 18.4349 7.11336 17.8122C5.4277 17.1894 3.98851 16.0384 3.01044 14.5309C2.03236 13.0234 1.56779 11.2401 1.68603 9.44693C1.80427 7.6538 2.49897 5.94694 3.66654 4.58089C4.8341 3.21485 6.41196 2.26282 8.16479 1.86679C9.91763 1.47076 11.7515 1.65195 13.393 2.38333" stroke="#054A86" stroke-width="1.5" stroke-linecap="round" stroke-linejoin="round"/>
<path d="M18.3333 3.33334L10 11.675L7.5 9.17501" stroke="#054A86" stroke-width="1.5" stroke-linecap="round" stroke-linejoin="round"/>
</g>
<defs>
<clipPath id="clip0_269_10668">
<rect width="20" height="20" fill="white"/>
</clipPath>
</defs>
</svg>
