<svg width="36" height="12" viewBox="0 0 36 12" fill="none" xmlns="http://www.w3.org/2000/svg">
<g clip-path="url(#clip0_1_13718)">
<path d="M15.5999 11.5978H12.6836L14.5076 0.856445H17.4237L15.5999 11.5978Z" fill="#00579F"/>
<path d="M26.1718 1.11941C25.5966 0.902076 24.6843 0.662109 23.5562 0.662109C20.6763 0.662109 18.6483 2.12469 18.6358 4.21574C18.6119 5.75851 20.0878 6.6154 21.1917 7.12981C22.3199 7.65546 22.7035 7.99855 22.7035 8.46709C22.692 9.18669 21.7918 9.51839 20.9521 9.51839C19.7878 9.51839 19.164 9.34737 18.2159 8.94702L17.8319 8.7754L17.4238 11.1866C18.1078 11.4834 19.368 11.7467 20.6763 11.7583C23.7362 11.7583 25.7283 10.3183 25.7519 8.08998C25.7636 6.86722 24.9842 5.93028 23.304 5.16467C22.2841 4.67319 21.6594 4.3418 21.6594 3.83893C21.6714 3.38178 22.1877 2.91354 23.3391 2.91354C24.2872 2.89061 24.9838 3.10764 25.5115 3.32482L25.7752 3.43888L26.1718 1.11941Z" fill="#00579F"/>
<path d="M30.0471 7.79254C30.2872 7.17546 31.2114 4.78719 31.2114 4.78719C31.1993 4.81012 31.4511 4.15872 31.5951 3.75882L31.7989 4.68437C31.7989 4.68437 32.3511 7.2555 32.471 7.79254C32.0153 7.79254 30.6231 7.79254 30.0471 7.79254ZM33.6468 0.856445H31.3911C30.6955 0.856445 30.167 1.05054 29.8669 1.74766L25.5352 11.5977H28.5951C28.5951 11.5977 29.0989 10.2719 29.2071 9.98641C29.5428 9.98641 32.5195 9.98641 32.9514 9.98641C33.0351 10.3635 33.2993 11.5977 33.2993 11.5977H35.9995L33.6468 0.856445Z" fill="#00579F"/>
<path d="M10.2488 0.856445L7.39283 8.18104L7.08074 6.69553C6.55273 4.98144 4.89678 3.11912 3.04883 2.19312L5.6648 11.5864H8.74865L13.3325 0.856445H10.2488Z" fill="#00579F"/>
<path d="M4.73997 0.856445H0.0480007L0 1.07348C3.66003 1.96485 6.08399 4.11346 7.07989 6.69598L6.05991 1.75936C5.89199 1.07333 5.37594 0.879075 4.73997 0.856445Z" fill="#FAA61A"/>
</g>
<defs>
<clipPath id="clip0_1_13718">
<rect width="36" height="12" fill="white"/>
</clipPath>
</defs>
</svg>
